<?xml version="1.0" encoding="utf-8"?>
<!-- Generator: Adobe Illustrator 26.0.3, SVG Export Plug-In . SVG Version: 6.00 Build 0)  -->
<svg version="1.1" id="레이어_1" xmlns="http://www.w3.org/2000/svg" xmlns:xlink="http://www.w3.org/1999/xlink" x="0px"
	 y="0px" viewBox="0 0 512 512" style="enable-background:new 0 0 512 512;" xml:space="preserve">
<path d="M128,358.4h179.2v51.2H128V358.4z M128,256h256v51.2H128V256z M128,153.6h256v51.2H128V153.6z M435.2,51.2h-107
	C317.4,21.5,289.3,0,256,0s-61.4,21.5-72.2,51.2h-107c-3.6,0-6.9,0.3-10.2,1c-10,2-18.9,7.2-25.9,14.1c-4.6,4.6-8.4,10.2-11,16.4
	c-2.6,5.9-4.1,12.5-4.1,19.7v358.4c0,6.9,1.5,13.8,4.1,20c2.6,6.1,6.4,11.5,11,16.4c6.9,6.9,15.9,12,25.9,14.1
	c3.3,0.5,6.7,0.8,10.2,0.8h358.4c28.2,0,51.2-23,51.2-51.2V102.4C486.4,74.2,463.4,51.2,435.2,51.2z M256,44.8
	c10.5,0,19.2,8.7,19.2,19.2s-8.7,19.2-19.2,19.2c-10.5,0-19.2-8.7-19.2-19.2S245.5,44.8,256,44.8z M435.2,460.8H76.8V102.4h358.4
	V460.8z"/>
</svg>
