<?xml version="1.0" encoding="utf-8"?>
<!-- Generator: Adobe Illustrator 26.0.3, SVG Export Plug-In . SVG Version: 6.00 Build 0)  -->
<svg version="1.1" id="레이어_1" xmlns="http://www.w3.org/2000/svg" xmlns:xlink="http://www.w3.org/1999/xlink" x="0px"
	 y="0px" viewBox="0 0 512 512" style="enable-background:new 0 0 512 512;" xml:space="preserve">
<path d="M349.1,116.4V384c0,51.4-41.7,93.1-93.1,93.1s-93.1-41.7-93.1-93.1V93.1c0-32.1,26.1-58.2,58.2-58.2s58.2,26.1,58.2,58.2
	v244.4c0,12.8-10.5,23.3-23.3,23.3c-12.8,0-23.3-10.5-23.3-23.3V116.4h-34.9v221.1c0,32.1,26.1,58.2,58.2,58.2s58.2-26.1,58.2-58.2
	V93.1c0-51.4-41.7-93.1-93.1-93.1S128,41.7,128,93.1V384c0,70.7,57.3,128,128,128s128-57.3,128-128V116.4H349.1z"/>
</svg>
