<?xml version="1.0" encoding="utf-8"?>
<!-- Generator: Adobe Illustrator 26.0.3, SVG Export Plug-In . SVG Version: 6.00 Build 0)  -->
<svg version="1.1" id="레이어_1" xmlns="http://www.w3.org/2000/svg" xmlns:xlink="http://www.w3.org/1999/xlink" x="0px"
	 y="0px" viewBox="0 0 512 512" style="enable-background:new 0 0 512 512;" xml:space="preserve">
<g>
	<rect x="307.2" y="192" width="102.4" height="38.4"/>
	<rect x="307.2" y="268.8" width="102.4" height="38.4"/>
	<path d="M460.8,64h-128H179.2h-128C23,64,0,87,0,115.2v281.6C0,425,23,448,51.2,448h409.6c28.2,0,51.2-23,51.2-51.2V115.2
		C512,87,489,64,460.8,64z M460.8,396.8H51.2V115.2h409.6V396.8z"/>
	<circle cx="179.2" cy="230.4" r="38.4"/>
	<path d="M256,334.6c0-15.6-9.2-29.4-23.6-35.6c-16.4-7.2-34.3-11-53.2-11s-36.9,3.8-53.2,11c-14.3,6.1-23.6,20-23.6,35.6v11H256
		V334.6z"/>
</g>
</svg>
