<?xml version="1.0" encoding="utf-8"?>
<!-- Generator: Adobe Illustrator 26.0.3, SVG Export Plug-In . SVG Version: 6.00 Build 0)  -->
<svg version="1.1" id="레이어_1" xmlns="http://www.w3.org/2000/svg" xmlns:xlink="http://www.w3.org/1999/xlink" x="0px"
	 y="0px" viewBox="0 0 512 512" style="enable-background:new 0 0 512 512;" xml:space="preserve">
<path d="M412.8,214.2C398.3,140.6,333.7,85.3,256,85.3c-61.7,0-115.2,35-141.9,86.2C49.9,178.3,0,232.7,0,298.7
	c0,70.6,57.4,128,128,128h277.3c58.9,0,106.7-47.8,106.7-106.7C512,263.7,468.3,218,412.8,214.2z M405.3,384H128
	c-47.1,0-85.3-38.2-85.3-85.3c0-43.7,32.6-80.2,75.9-84.7l22.8-2.3l10.7-20.3c20.3-39,59.9-63.4,103.9-63.4
	c55.9,0,104.1,39.7,115,94.5l6.4,32l32.6,2.3c33.3,2.1,59.3,30.1,59.3,63.1C469.3,355.2,440.5,384,405.3,384z M170.7,277.3h54.4v64
	h61.9v-64h54.4L256,192L170.7,277.3z"/>
</svg>
