<?xml version="1.0" encoding="utf-8"?>
<!-- Generator: Adobe Illustrator 26.0.3, SVG Export Plug-In . SVG Version: 6.00 Build 0)  -->
<svg version="1.1" id="레이어_1" xmlns="http://www.w3.org/2000/svg" xmlns:xlink="http://www.w3.org/1999/xlink" x="0px"
	 y="0px" viewBox="0 0 512 512" style="enable-background:new 0 0 512 512;" xml:space="preserve">
<path d="M244.7,512v-81.6c-113.6-5.9-204-100.2-204-215.1C40.7,96.6,137.2,0,256,0s215.3,96.6,215.3,215.3
	c0,112.2-78,225.1-194.2,281L244.7,512z M256,45.3c-93.8,0-170,76.2-170,170s76.2,170,170,170h34v52.1
	c82.5-52.1,136-137.8,136-222.1C426,121.5,349.8,45.3,256,45.3z M233.3,306h45.3v45.3h-45.3V306z M278.7,272h-45.3
	c0-73.7,68-68,68-113.3c0-24.9-20.4-45.3-45.3-45.3s-45.3,20.4-45.3,45.3h-45.3c0-50.1,40.6-90.7,90.7-90.7s90.7,40.6,90.7,90.7
	C346.7,215.3,278.7,221,278.7,272z"/>
</svg>
