<?xml version="1.0" encoding="utf-8"?>
<!-- Generator: Adobe Illustrator 26.0.3, SVG Export Plug-In . SVG Version: 6.00 Build 0)  -->
<svg version="1.1" id="레이어_1" xmlns="http://www.w3.org/2000/svg" xmlns:xlink="http://www.w3.org/1999/xlink" x="0px"
	 y="0px" viewBox="0 0 512 512" style="enable-background:new 0 0 512 512;" xml:space="preserve">
<path d="M256,128V25.6H0v460.8h512V128H256z M102.4,435.2H51.2V384h51.2V435.2z M102.4,332.8H51.2v-51.2h51.2V332.8z M102.4,230.4
	H51.2v-51.2h51.2V230.4z M102.4,128H51.2V76.8h51.2V128z M204.8,435.2h-51.2V384h51.2V435.2z M204.8,332.8h-51.2v-51.2h51.2V332.8z
	 M204.8,230.4h-51.2v-51.2h51.2V230.4z M204.8,128h-51.2V76.8h51.2V128z M460.8,435.2H256V384h51.2v-51.2H256v-51.2h51.2v-51.2H256
	v-51.2h204.8V435.2z M409.6,230.4h-51.2v51.2h51.2V230.4z M409.6,332.8h-51.2V384h51.2V332.8z"/>
</svg>
