<?xml version="1.0" encoding="utf-8"?>
<!-- Generator: Adobe Illustrator 26.0.3, SVG Export Plug-In . SVG Version: 6.00 Build 0)  -->
<svg version="1.1" id="레이어_1" xmlns="http://www.w3.org/2000/svg" xmlns:xlink="http://www.w3.org/1999/xlink" x="0px"
	 y="0px" viewBox="0 0 512 512" style="enable-background:new 0 0 512 512;" xml:space="preserve">
<path d="M437,75C388.7,26.6,324.4,0,256,0S123.3,26.6,75,75S0,187.6,0,256C0.1,324.4,26.7,388.6,75,437c48.3,48.3,112.6,75,181,75
	c68.4,0,132.7-26.6,181-75c48.4-48.4,75-112.6,75-181S485.4,123.3,437,75z M357.4,195.1h98.7c6.1,19.7,9.2,40.2,9.3,60.9
	c-0.1,19.3-2.7,38.4-7.8,57l-99.4,0.7C364.3,274.2,364,234.4,357.4,195.1z M301.4,460.2c20.4-30.8,35.8-64.3,46-100l90.2-0.7
	C408.3,410.9,358.8,447.3,301.4,460.2z M203.9,53.5c-19.2,29.4-34,61.2-44.1,94.9H76.7C104.9,101.4,151,67.1,203.9,53.5z M311,314.1
	l-114.8,0.7c-7.5-39.8-7.5-80,0-119.8h114.1C317.7,234.5,318,274.5,311,314.1z M346.5,148.4c-10.4-34.4-25.6-66.9-45.3-96.9
	c56,12.4,104.7,47.5,134.2,96.9H346.5z M208.7,148.4c10.6-30.3,25.5-58.7,44.4-84.5c19,25.9,33.9,54.2,44.5,84.5H208.7z
	 M159.1,361.6c10.2,34.4,25.2,66.9,44.8,96.9c-53.4-13.8-99.8-48.6-128.1-96.2L159.1,361.6z M298.5,360.9
	c-10.7,31.2-25.9,60.5-45.3,87.2c-19.5-26.4-34.5-55.4-45-86.6L298.5,360.9z M148.7,314.9l-93.2,0.7c-5.9-19.3-8.9-39.3-8.9-59.5v0
	c0-20.7,3.1-41.2,9.3-60.9H149C142.5,234.9,142.4,275.1,148.7,314.9z"/>
</svg>
