<?xml version="1.0" encoding="utf-8"?>
<!-- Generator: Adobe Illustrator 26.0.3, SVG Export Plug-In . SVG Version: 6.00 Build 0)  -->
<svg version="1.1" id="레이어_1" xmlns="http://www.w3.org/2000/svg" xmlns:xlink="http://www.w3.org/1999/xlink" x="0px"
	 y="0px" viewBox="0 0 512 512" style="enable-background:new 0 0 512 512;" xml:space="preserve">
<path d="M322.3,153.6L256,219.9l-66.3-66.3l-36.1,36.1l66.3,66.3l-66.3,66.3l36.1,36.1l66.3-66.3l66.3,66.3l36.1-36.1L292.1,256
	l66.3-66.3L322.3,153.6z M256,0C114.4,0,0,114.4,0,256s114.4,256,256,256s256-114.4,256-256S397.6,0,256,0z M256,460.8
	c-112.9,0-204.8-91.9-204.8-204.8S143.1,51.2,256,51.2S460.8,143.1,460.8,256S368.9,460.8,256,460.8z"/>
</svg>
