<?xml version="1.0" encoding="utf-8"?>
<!-- Generator: Adobe Illustrator 26.0.3, SVG Export Plug-In . SVG Version: 6.00 Build 0)  -->
<svg version="1.1" id="레이어_1" xmlns="http://www.w3.org/2000/svg" xmlns:xlink="http://www.w3.org/1999/xlink" x="0px"
	 y="0px" viewBox="0 0 512 512" style="enable-background:new 0 0 512 512;" xml:space="preserve">
<g>
	<path d="M465.5,69.8c-25.8-8.1-54.2-11.6-81.5-11.6c-45.4,0-94.3,9.3-128,34.9c-33.7-25.6-82.6-34.9-128-34.9S33.7,67.5,0,93.1V434
		c0,5.8,5.8,11.6,11.6,11.6c2.3,0,3.5-1.2,5.8-1.2c31.4-15.1,76.8-25.6,110.5-25.6c45.4,0,94.3,9.3,128,34.9
		c31.4-19.8,88.4-34.9,128-34.9c38.4,0,78,7,110.5,24.4c2.3,1.2,3.5,1.2,5.8,1.2c5.8,0,11.6-5.8,11.6-11.6V93.1
		C498,82.6,482.9,75.6,465.5,69.8z M465.5,384c-25.6-8.1-53.5-11.6-81.5-11.6c-39.6,0-96.6,15.1-128,34.9V139.6
		c31.4-19.8,88.4-34.9,128-34.9c27.9,0,55.9,3.5,81.5,11.6V384z"/>
	<g>
		<path d="M384,197.8c20.5,0,40.3,2.1,58.2,6.1v-35.4c-18.4-3.5-38.2-5.6-58.2-5.6c-39.6,0-75.4,6.7-104.7,19.3v38.6
			C305.6,206,342.1,197.8,384,197.8z"/>
		<path d="M279.3,244.1v38.6c26.3-14.9,62.8-23,104.7-23c20.5,0,40.3,2.1,58.2,6.1v-35.4c-18.4-3.5-38.2-5.6-58.2-5.6
			C344.4,224.8,308.6,231.8,279.3,244.1z"/>
		<path d="M384,287c-39.6,0-75.4,6.7-104.7,19.3v38.6c26.3-14.9,62.8-23,104.7-23c20.5,0,40.3,2.1,58.2,6.1v-35.4
			C423.8,288.8,404,287,384,287z"/>
	</g>
</g>
</svg>
