<?xml version="1.0" encoding="utf-8"?>
<!-- Generator: Adobe Illustrator 26.0.3, SVG Export Plug-In . SVG Version: 6.00 Build 0)  -->
<svg version="1.1" id="레이어_1" xmlns="http://www.w3.org/2000/svg" xmlns:xlink="http://www.w3.org/1999/xlink" x="0px"
	 y="0px" viewBox="0 0 512 512" style="enable-background:new 0 0 512 512;" xml:space="preserve">
<g>
	<path d="M64,192c-35.2,0-64,28.8-64,64s28.8,64,64,64s64-28.8,64-64S99.2,192,64,192z M448,192c-35.2,0-64,28.8-64,64
		s28.8,64,64,64s64-28.8,64-64S483.2,192,448,192z M256,192c-35.2,0-64,28.8-64,64s28.8,64,64,64s64-28.8,64-64S291.2,192,256,192z"
		/>
</g>
</svg>
