<?xml version="1.0" encoding="utf-8"?>
<!-- Generator: Adobe Illustrator 26.0.3, SVG Export Plug-In . SVG Version: 6.00 Build 0)  -->
<svg version="1.1" id="레이어_1" xmlns="http://www.w3.org/2000/svg" xmlns:xlink="http://www.w3.org/1999/xlink" x="0px"
	 y="0px" viewBox="0 0 512 512" style="enable-background:new 0 0 512 512;" xml:space="preserve">
<path d="M256,512c28.9,0,52.5-23.6,52.5-52.5h-105C203.5,488.4,227.1,512,256,512z M413.5,354.5V223.2
	c0-80.6-42.8-148.1-118.2-165.9V39.4C295.4,17.6,277.8,0,256,0s-39.4,17.6-39.4,39.4v17.9C141.5,75.1,98.5,142.3,98.5,223.2v131.3
	L45.9,407v26.3h420.1V407L413.5,354.5z M361,380.7H151V223.2c0-65.1,39.6-118.2,105-118.2s105,53,105,118.2V380.7z"/>
</svg>
