<?xml version="1.0" encoding="utf-8"?>
<!-- Generator: Adobe Illustrator 26.0.3, SVG Export Plug-In . SVG Version: 6.00 Build 0)  -->
<svg version="1.1" id="레이어_1" xmlns="http://www.w3.org/2000/svg" xmlns:xlink="http://www.w3.org/1999/xlink" x="0px"
	 y="0px" viewBox="0 0 512 512" style="enable-background:new 0 0 512 512;" xml:space="preserve">
<g>
	<g>
		<path d="M364.7,282.3c31.9,21.6,54.2,51,54.2,90.1v69.8H512v-69.8C512,321.6,428.9,291.6,364.7,282.3z"/>
		<path d="M325.8,256c51.4,0,93.1-41.7,93.1-93.1s-41.7-93.1-93.1-93.1c-10.9,0-21.2,2.3-31,5.6c19.3,24,31,54.5,31,87.5
			s-11.6,63.5-31,87.5C304.6,253.7,314.9,256,325.8,256z"/>
		<path d="M186.2,256c51.4,0,93.1-41.7,93.1-93.1s-41.7-93.1-93.1-93.1s-93.1,41.7-93.1,93.1S134.7,256,186.2,256z M186.2,116.4
			c25.6,0,46.5,20.9,46.5,46.5s-20.9,46.5-46.5,46.5s-46.5-20.9-46.5-46.5S160.6,116.4,186.2,116.4z"/>
		<path d="M186.2,279.3C124,279.3,0,310.5,0,372.4v69.8h372.4v-69.8C372.4,310.5,248.3,279.3,186.2,279.3z M325.8,395.6H46.5v-23
			c4.7-16.8,76.8-46.8,139.6-46.8s135,30,139.6,46.5V395.6z"/>
	</g>
</g>
</svg>
