<?xml version="1.0" encoding="utf-8"?>
<!-- Generator: Adobe Illustrator 26.0.3, SVG Export Plug-In . SVG Version: 6.00 Build 0)  -->
<svg version="1.1" id="레이어_1" xmlns="http://www.w3.org/2000/svg" xmlns:xlink="http://www.w3.org/1999/xlink" x="0px"
	 y="0px" viewBox="0 0 512 512" style="enable-background:new 0 0 512 512;" xml:space="preserve">
<path d="M100.7,56.9c1.7,25.3,6,50.1,12.8,73.7l-34.1,34.1C67.7,130.6,60.3,94.4,57.7,56.9H100.7 M381.2,398.8
	c24.2,6.8,48.9,11.1,74,12.8V454c-37.5-2.6-73.7-10-108.1-21.3L381.2,398.8 M128,0H28.4C12.8,0,0,12.8,0,28.4
	C0,295.5,216.5,512,483.6,512c15.6,0,28.4-12.8,28.4-28.4v-99.3c0-15.6-12.8-28.4-28.4-28.4c-35.3,0-69.7-5.7-101.5-16.2
	c-2.8-1.1-6-1.4-8.8-1.4c-7.4,0-14.5,2.8-20.2,8.2L290.4,409c-80.5-41.2-146.5-107-187.4-187.4l62.6-62.6c8-8,10.2-19.1,7.1-29
	c-10.5-31.9-16.2-66-16.2-101.5C156.4,12.8,143.6,0,128,0z"/>
</svg>
