<?xml version="1.0" encoding="utf-8"?>
<!-- Generator: Adobe Illustrator 26.0.3, SVG Export Plug-In . SVG Version: 6.00 Build 0)  -->
<svg version="1.1" id="레이어_1" xmlns="http://www.w3.org/2000/svg" xmlns:xlink="http://www.w3.org/1999/xlink" x="0px"
	 y="0px" viewBox="0 0 512 512" style="enable-background:new 0 0 512 512;" xml:space="preserve">
<g>
	<path d="M448,38.4L409.6,0l-38.4,38.4L332.8,0l-38.4,38.4L256,0l-38.4,38.4L179.2,0l-38.4,38.4L102.4,0v358.4H25.6v76.8
		c0,42.5,34.3,76.8,76.8,76.8h307.2c42.5,0,76.8-34.3,76.8-76.8V0L448,38.4z M332.8,460.8H102.4c-14.1,0-25.6-11.5-25.6-25.6v-25.6
		h256V460.8z M435.2,435.2c0,14.1-11.5,25.6-25.6,25.6S384,449.3,384,435.2v-76.8H153.6V76.8h281.6V435.2z"/>
	<rect x="179.2" y="128" width="153.6" height="51.2"/>
	<rect x="358.4" y="128" width="51.2" height="51.2"/>
	<rect x="179.2" y="204.8" width="153.6" height="51.2"/>
	<rect x="358.4" y="204.8" width="51.2" height="51.2"/>
</g>
</svg>
