<?xml version="1.0" encoding="utf-8"?>
<!-- Generator: Adobe Illustrator 26.0.3, SVG Export Plug-In . SVG Version: 6.00 Build 0)  -->
<svg version="1.1" id="레이어_1" xmlns="http://www.w3.org/2000/svg" xmlns:xlink="http://www.w3.org/1999/xlink" x="0px"
	 y="0px" viewBox="0 0 512 512" style="enable-background:new 0 0 512 512;" xml:space="preserve">
<path d="M365.9,322h-23.1l-8.2-7.9c28.7-33.4,46-76.7,46-123.8C380.6,85.2,295.4,0,190.3,0S0,85.2,0,190.3s85.2,190.3,190.3,190.3
	c47.1,0,90.5-17.3,123.8-46l7.9,8.2v23.1L468.4,512l43.6-43.6L365.9,322z M190.3,322c-72.9,0-131.7-58.8-131.7-131.7
	S117.4,58.5,190.3,58.5S322,117.4,322,190.3S263.2,322,190.3,322z"/>
</svg>
