<?xml version="1.0" encoding="utf-8"?>
<!-- Generator: Adobe Illustrator 26.0.3, SVG Export Plug-In . SVG Version: 6.00 Build 0)  -->
<svg version="1.1" id="레이어_1" xmlns="http://www.w3.org/2000/svg" xmlns:xlink="http://www.w3.org/1999/xlink" x="0px"
	 y="0px" viewBox="0 0 512 512" style="enable-background:new 0 0 512 512;" xml:space="preserve">
<path d="M446.3,281.1c1-8.2,1.8-16.4,1.8-25.1c0-8.7-0.8-16.9-1.8-25.1l54-42.2c4.9-3.8,6.1-10.8,3.1-16.4l-51.2-88.6
	c-2.3-4.1-6.7-6.4-11.3-6.4c-1.5,0-3.1,0.3-4.4,0.8l-63.7,25.6c-13.3-10.2-27.6-18.7-43.3-25.1l-9.7-67.8C319,4.6,313.7,0,307.3,0
	H204.9c-6.4,0-11.8,4.6-12.5,10.8l-9.7,67.8c-15.6,6.4-30,15.1-43.3,25.1L75.6,78.1c-1.5-0.5-3.1-0.8-4.6-0.8c-4.4,0-8.7,2.3-11,6.4
	L8.8,172.3c-3.3,5.6-1.8,12.5,3.1,16.4l54,42.2c-1,8.2-1.8,16.6-1.8,25.1c0,8.4,0.8,16.9,1.8,25.1l-54,42.2
	c-4.9,3.8-6.1,10.8-3.1,16.4L60,428.3c2.3,4.1,6.7,6.4,11.3,6.4c1.5,0,3.1-0.3,4.4-0.8l63.7-25.6c13.3,10.2,27.6,18.7,43.3,25.1
	l9.7,67.8c0.8,6.1,6.1,10.8,12.5,10.8h102.4c6.4,0,11.8-4.6,12.5-10.8l9.7-67.8c15.6-6.4,30-15.1,43.3-25.1l63.7,25.6
	c1.5,0.5,3.1,0.8,4.6,0.8c4.4,0,8.7-2.3,11-6.4l51.2-88.6c3.1-5.6,1.8-12.5-3.1-16.4L446.3,281.1z M395.6,237.3
	c1,7.9,1.3,13.3,1.3,18.7c0,5.4-0.5,11-1.3,18.7l-3.6,28.9l22.8,17.9l27.6,21.5l-17.9,31L392,361l-26.6-10.8l-23,17.4
	c-11,8.2-21.5,14.3-32,18.7l-27.1,11l-4.1,28.9l-5.1,34.6h-35.8l-4.9-34.6l-4.1-28.9l-27.1-11c-11-4.6-21.2-10.5-31.5-18.2
	l-23.3-17.9l-27.1,11l-32.5,13.1l-17.9-31l27.6-21.5l22.8-17.9l-3.6-28.9c-0.8-7.9-1.3-13.8-1.3-18.9c0-5.1,0.5-11,1.3-18.7
	l3.6-28.9l-22.8-17.9L69.7,169l17.9-31l32.5,13.1l26.6,10.8l23-17.4c11-8.2,21.5-14.3,32-18.7l27.1-11l4.1-28.9l5.1-34.6h35.6
	l4.9,34.6l4.1,28.9l27.1,11c11,4.6,21.2,10.5,31.5,18.2l23.3,17.9l27.1-11l32.5-13.1l17.9,31l-27.4,21.8L392,208.4
	C392,208.4,395.6,237.3,395.6,237.3z M256.1,153.6c-56.6,0-102.4,45.8-102.4,102.4s45.8,102.4,102.4,102.4S358.5,312.6,358.5,256
	S312.6,153.6,256.1,153.6z M256.1,307.2c-28.2,0-51.2-23-51.2-51.2s23-51.2,51.2-51.2s51.2,23,51.2,51.2S284.2,307.2,256.1,307.2z"
	/>
</svg>
