<?xml version="1.0" encoding="utf-8"?>
<!-- Generator: Adobe Illustrator 26.0.3, SVG Export Plug-In . SVG Version: 6.00 Build 0)  -->
<svg version="1.1" id="레이어_1" xmlns="http://www.w3.org/2000/svg" xmlns:xlink="http://www.w3.org/1999/xlink" x="0px"
	 y="0px" viewBox="0 0 512 512" style="enable-background:new 0 0 512 512;" xml:space="preserve">
<path d="M307.2,115.2V64H204.8v51.2H307.2z M51.2,166.4V448h409.6V166.4H51.2z M460.8,115.2c28.4,0,51.2,22.8,51.2,51.2V448
	c0,28.4-22.8,51.2-51.2,51.2H51.2C22.8,499.2,0,476.4,0,448l0.3-281.6c0-28.4,22.5-51.2,50.9-51.2h102.4V64
	c0-28.4,22.8-51.2,51.2-51.2h102.4c28.4,0,51.2,22.8,51.2,51.2v51.2H460.8z"/>
</svg>
